<?xml version="1.0" encoding="utf-8"?>
<!-- Generator: Adobe Illustrator 22.0.1, SVG Export Plug-In . SVG Version: 6.00 Build 0)  -->
<svg version="1.1" id="Layer_1" xmlns="http://www.w3.org/2000/svg" xmlns:xlink="http://www.w3.org/1999/xlink" x="0px" y="0px"
	 viewBox="0 0 830.6 197.2" style="enable-background:new 0 0 830.6 197.2;" xml:space="preserve">
<style type="text/css">
	.st0{fill:#FFFFFF;stroke:#000000;stroke-miterlimit:10;}
	.st1{fill:none;stroke:#000000;stroke-miterlimit:10;}
</style>
<g id="border">
	<circle class="st0" cx="383" cy="-227" r="216"/>
	<g id="stem">
		<path id="boundary_5_" class="st0" d="M222.7,146.2c0,10.6-3.9,20.3-10.3,27.8c-7.8,9-19.3,14.8-32.2,14.8
			c-23.5,0-42.5-19-42.5-42.5s19-42.5,42.5-42.5S222.7,122.7,222.7,146.2z"/>
		<line id="axis_5_" class="st1" x1="181.1" y1="98" x2="181.1" y2="193.2"/>
	</g>
	<g id="running">
		<path id="boundary_6_" class="st0" d="M426.7-358.8c0,10.6-3.9,20.3-10.3,27.8c-7.8,9-19.3,14.8-32.2,14.8
			c-23.5,0-42.5-19-42.5-42.5s19-42.5,42.5-42.5S426.7-382.3,426.7-358.8z"/>
		<line id="axis_6_" class="st1" x1="385.1" y1="-407" x2="385.1" y2="-311.8"/>
	</g>
	<g id="chain">
		<path id="boundary_7_" class="st0" d="M404.7,146.2c0,10.6-3.9,20.3-10.3,27.8c-7.8,9-19.3,14.8-32.2,14.8
			c-23.5,0-42.5-19-42.5-42.5s19-42.5,42.5-42.5S404.7,122.7,404.7,146.2z"/>
		<line id="axis_7_" class="st1" x1="363.1" y1="98" x2="363.1" y2="193.2"/>
	</g>
</g>
<g id="fill">
	<g id="fly">
		<path id="boundary" class="st0" d="M301.5-237.5c0,10.6-3.9,20.3-10.3,27.8c-7.8,9-19.3,14.7-32.2,14.7c-23.5,0-42.5-19-42.5-42.5
			s19-42.6,42.5-42.6S301.5-261,301.5-237.5z"/>
		<line id="axis" class="st1" x1="259.9" y1="-285.7" x2="259.9" y2="-190.5"/>
	</g>
	<g id="satin_1_">
		<path id="boundary_1_" class="st0" d="M185.2,49.2c0,10.6-3.9,20.3-10.3,27.8c-7.8,9-19.3,14.8-32.2,14.8
			c-23.5,0-42.5-19-42.5-42.5s19-42.5,42.5-42.5S185.2,25.7,185.2,49.2z"/>
		<line id="axis_1_" class="st1" x1="143.5" y1="1" x2="143.5" y2="96.2"/>
	</g>
	<g id="cross">
		<path id="boundary_2_" class="st0" d="M424.7-112.8c0,10.6-3.9,20.3-10.3,27.8c-7.8,9-19.3,14.8-32.2,14.8
			c-23.5,0-42.5-19-42.5-42.5s19-42.5,42.5-42.5S424.7-136.3,424.7-112.8z"/>
		<line id="axis_2_" class="st1" x1="383" y1="-161" x2="383" y2="-65.8"/>
	</g>
	<g id="serpentine_1_">
		<path id="boundary_3_" class="st0" d="M366.7,49.2c0,10.6-3.9,20.3-10.3,27.8c-7.8,9-19.3,14.8-32.2,14.8
			c-23.5,0-42.5-19-42.5-42.5s19-42.5,42.5-42.5S366.7,25.7,366.7,49.2z"/>
		<line id="axis_3_" class="st1" x1="325.1" y1="1" x2="325.1" y2="96.2"/>
	</g>
	<g id="daisy">
		<path id="boundary_4_" class="st0" d="M556.7,49.2c0,10.6-3.9,20.3-10.3,27.8c-7.8,9-19.3,14.8-32.2,14.8
			c-23.5,0-42.5-19-42.5-42.5s19-42.5,42.5-42.5S556.7,25.7,556.7,49.2z"/>
		<line id="axis_4_" class="st1" x1="515.1" y1="1" x2="515.1" y2="96.2"/>
	</g>
	<g id="herringbone">
		<path id="boundary_8_" class="st0" d="M461.7,49.2c0,10.6-3.9,20.3-10.3,27.8c-7.8,9-19.3,14.8-32.2,14.8
			c-23.5,0-42.5-19-42.5-42.5s19-42.5,42.5-42.5S461.7,25.7,461.7,49.2z"/>
		<line id="axis_8_" class="st1" x1="420.1" y1="1" x2="420.1" y2="96.2"/>
	</g>
	<g id="star">
		<path id="boundary_9_" class="st0" d="M545.8-237.5c0,10.6-3.9,20.3-10.3,27.8c-7.8,9-19.3,14.8-32.2,14.8
			c-23.5,0-42.5-19-42.5-42.5s19-42.5,42.5-42.5S545.8-261,545.8-237.5z"/>
		<line id="axis_9_" class="st1" x1="504.2" y1="-285.7" x2="504.2" y2="-190.5"/>
	</g>
	<g id="frenchknotseed">
		<path id="boundary_10_" class="st0" d="M744.7,47.2c0,10.6-3.9,20.3-10.3,27.8c-7.8,9-19.3,14.8-32.2,14.8
			c-23.5,0-42.5-19-42.5-42.5s19-42.5,42.5-42.5S744.7,23.7,744.7,47.2z"/>
		<line id="axis_10_" class="st1" x1="703.1" y1="-1" x2="703.1" y2="94.2"/>
	</g>
	<g id="seed_1_">
		<path id="boundary_11_" class="st0" d="M424.7-237.5c0,10.6-3.9,20.3-10.3,27.8c-7.8,9-19.3,14.8-32.2,14.8
			c-23.5,0-42.5-19-42.5-42.5s19-42.5,42.5-42.5S424.7-261,424.7-237.5z"/>
		<line id="axis_11_" class="st1" x1="383.1" y1="-285.7" x2="383.1" y2="-190.5"/>
	</g>
</g>
</svg>
