<?xml version="1.0" encoding="utf-8"?>
<!-- Generator: Adobe Illustrator 22.0.1, SVG Export Plug-In . SVG Version: 6.00 Build 0)  -->
<svg version="1.1" id="svg" xmlns="http://www.w3.org/2000/svg" xmlns:xlink="http://www.w3.org/1999/xlink" x="0px" y="0px"
	 viewBox="0 0 167 159.8" style="enable-background:new 0 0 167 159.8;" xml:space="preserve">
<style type="text/css">
	.st0{fill:#B3945C;}
	.st1{fill:none;stroke:#000000;stroke-miterlimit:10;}
	.st2{fill:#6C5F94;}
	.st3{fill:#FFFFFF;}
</style>
<g id="artwork">
	<g id="fly_2_">
		<path id="boundary" class="st0" d="M138.4,67c-0.1,0-1.3,0.2-2.8,0.3c-3.5,0.4-5.6,0.7-9.3,1.5c-1.6,0.4-2.6,0.6-3,0.8
			c-0.2,0.1-0.9,0.3-1.6,0.5c-2.7,0.9-4,1.4-7.2,2.9c-5.1,2.5-6.9,3.8-11.3,8.1C75,108.8,75.7,108,76.4,107.9
			c0.8-0.1,3.2-0.6,4.3-0.9c0.5-0.1,2.2-0.6,3.6-0.9c11.1-2.8,18.5-2.6,27.9,0.7c1.4,0.5,4.7,2.2,6.4,3.3c0.8,0.5,4.9,3.6,5.3,4
			c0.6,0.6,1,0.3,3.9-2.5c1.8-1.8,2.4-2.2,3.6-2.6c0.4-0.1,0.6-0.3,0.7-0.9c0.1-0.4,0.3-0.9,0.4-1s0.2-0.5,0.3-0.9
			c0.1-0.3,0.2-0.7,0.3-0.9c0.1-0.1,0.3-0.8,0.5-1.4s0.5-1.3,0.6-1.6c0.1-0.2,0.2-0.5,0.2-0.6s0.1-0.4,0.2-0.7
			c0.1-0.3,0.5-1,0.7-1.6c1.6-3.6,4.3-8.6,6.4-11.6c1.1-1.6,1.7-2.5,1.8-2.6c0,0,0.5-0.6,0.9-1.2c2.6-3.4,7-8.1,10.3-10.8
			c0.9-0.8,1.6-1.4,1.6-1.5s-0.3-0.6-0.6-1.2c-0.4-0.8-0.6-1.4-0.6-2.2v-1.1l-1.1-0.1c-0.6-0.1-1.8-0.2-2.6-0.3
			C150.4,66.9,138.7,66.9,138.4,67"/>
		<path id="axis" class="st1" d="M155.7,70.5c-6.3,0.4-20.3,2.2-34.4,11.7c-11.8,7.9-18.2,17.5-21.2,22.8"/>
	</g>
	<g id="fly_1_">
		<path id="boundary_1_" class="st0" d="M11.1,41.4c-0.1,0.3-0.3,0.7-0.3,0.7c0,0.2-1.8,2.1-2.1,2.2c-0.3,0.1,0,1.1,0.5,1.6
			c0.2,0.2,2.9,5.6,2.9,5.8c0,0.1,0.2,0.6,0.5,1.2c1,2.3,2.6,6.9,3.4,9.7c0.1,0.6,0.3,1.3,0.4,1.7c1.3,5.2,1.8,10.1,1.8,17.7v6.1
			l0.6,0.3c0.8,0.5,2.6,3.1,2.6,3.9c0,0.2,1.4,3,1.6,3.3s0.3,0.3,1.6-0.1s3.1-1,4.8-1.4c4.9-1.3,12.6-1.2,18.2,0.3
			c0.7,0.2,1.6,0.4,1.9,0.5c1.9,0.5,6,2.3,8,3.5c0.6,0.4,1.2,0.7,1.3,0.7s0.3,0.1,0.4,0.2s0.4,0.3,0.7,0.4c0.2,0.1,1.6,1.1,3.1,2.1
			c5.6,3.9,7.7,5.3,7.9,5.1c0,0-0.2-0.6-0.5-1.3c-0.3-0.7-0.7-1.6-1-2.1c-0.2-0.5-0.7-1.5-1-2.3c-0.3-0.7-0.8-1.7-1-2.3
			c-0.2-0.5-0.6-1.3-0.8-1.8c-0.6-1.3-1.3-2.7-1.8-3.9c-0.5-1.2-1.1-2.5-2.2-4.8c-0.4-0.9-0.8-1.7-0.8-1.8c0-0.1-1-2.2-1.8-4
			c-0.1-0.3-0.5-1.1-0.8-1.7c-1.3-2.9-1.3-2.8-2.9-6.4c-0.3-0.6-0.8-1.7-1.1-2.3c-0.3-0.6-0.7-1.6-1-2.1c-0.8-1.7-1.7-3.5-2.2-4.1
			c-0.1-0.1-0.5-0.7-1-1.4c-0.5-0.7-1-1.3-1.1-1.4s-0.6-0.7-1.1-1.3c-1.1-1.4-4.1-4.3-5.7-5.7c-0.6-0.5-1.2-1-1.2-1
			c0-0.1-0.9-0.7-1.8-1.4c-4.8-3.6-11.1-7.1-17-9.4c-1-0.4-1.9-0.7-2.1-0.8c-0.3-0.1-2.7-1-4.2-1.5c-0.4-0.1-1-0.3-1.3-0.4
			c-0.3-0.1-0.7-0.2-0.9-0.3c-0.1-0.1-0.6-0.2-1-0.3s-1.1-0.3-1.6-0.4l-0.9-0.3L11.1,41.4"/>
		<path id="axis_1_" class="st1" d="M10.8,43c9.6,5.2,16.3,14.4,22.6,23.4c2,2.8,4,5.7,5.5,8.9c2.6,5.7,3,12.1,3.5,18.3"/>
	</g>
	<g id="fly">
		<path id="boundary_2_" class="st0" d="M52.5,7c-0.2,1-0.8,2.1-1.6,2.8c-0.4,0.4-0.7,0.8-0.6,0.8c0.2,0.1,3.2,6,4,7.9
			c3.3,7.7,5.2,15.6,5.7,24.3c0.2,2.9,0,3.9-0.9,5.2c-0.9,1.2-3.1,5.1-5.2,9.3c-0.8,1.5-1.4,2.9-1.5,3c-0.1,0.2,0.1,0.7,1,1.7
			c1.5,1.9,2.8,4,3.4,5.2c0.5,1.1,1.1,2.5,1.9,4.1c0.3,0.6,0.7,1.5,0.9,2c0.6,1.2,1.4,3,1.9,4.1c0.2,0.5,0.7,1.5,1,2.1
			s0.8,1.7,1.1,2.3c0.3,0.6,0.7,1.6,1,2.1c0.2,0.5,0.6,1.4,0.9,2s0.7,1.5,0.9,2c0.2,0.5,0.7,1.5,1,2.1s0.8,1.7,1.1,2.3
			c0.7,1.5,1.2,2.6,1.9,4.1c1,2.2,1.3,2.9,1.7,3.8c0.2,0.5,0.7,1.6,1.1,2.5s0.8,1.7,0.8,1.8c0,0.5,4.3-3.6,24.1-23.2
			c6.3-6.2,6.3-6.2,8.4-7.7c1.1-0.8,4-2.5,4.2-2.5c0.7,0,0.7-1.9,0-3.4c-0.3-0.5-0.8-1.7-1.5-3.2c-0.2-0.4-0.7-1.5-1.1-2.3
			c-0.4-0.9-0.9-1.9-1.1-2.3s-0.6-1.3-0.9-2c-0.9-1.9-1.6-3.3-2.7-5.9c-0.1-0.2-0.4-0.8-0.6-1.4c-0.3-0.6-1-2.2-1.6-3.6
			c-1.3-3.1-1.3-3.1-3.3-7.3c-1.9-3.9-4.4-8.2-6-10.2c-0.1-0.1-0.6-0.7-1.1-1.4C85.9,21.7,76.2,14.9,66.4,11
			c-0.8-0.3-1.7-0.7-1.9-0.8c-1.2-0.5-6.8-2.5-9.2-3.1c-0.8-0.2-1.6-0.5-1.9-0.5C52.7,6.4,52.6,6.4,52.5,7"/>
		<path id="axis_2_" class="st1" d="M51,8.7c5.2,2.6,11.8,6.9,17.7,13.8c2,2.3,5.5,6.5,8.2,12.8c2.6,6.1,3.5,11.9,3.6,18.7
			c0.6,20.2-4.8,43.9-6.4,50.4"/>
	</g>
	<g id="serpentine">
		<path id="boundary_3_" class="st2" d="M17,91.7c-0.4,1.1-0.6,5.7-1,18.1c-0.1,3.4-0.3,7.1-0.3,8.3c-0.6,7.9,0.7,13.4,4.8,19.4
			c6,8.7,12.7,12.2,23.2,11.9c6.2-0.2,7.6,0.2,12.5,3.1c2.4,1.5,5.8,3.1,7.7,3.8c1.4,0.5,7.9,0.1,10.5-0.6c3.3-0.9,7.6-0.4,11,1.1
			c0.8,0.3,1.6,0.7,1.9,0.9c7.5,3.5,16.6,2.6,24-2.4c7.3-4.8,9.6-8.2,13.1-18.7c1-3.1,2.3-6.8,2.8-8.1c1.3-3.6,2.3-6.6,3.3-9.6
			c0.5-1.4,0.9-2.9,1.1-3.2c1.1-3.2,0.7-3.4-1.5-1.2c-4.7,4.6-5.2,4.7-9.9,1c-5.4-4.2-8.9-5.8-16.4-7.4c-4.1-0.9-12.2-0.3-18.2,1.4
			c-9.8,2.7-12.3,2.7-16.8,0.2c-1.4-0.8-1.9-1.1-6.5-4.3c-8.6-6.1-14.6-8.3-22.8-8.7c-4.3-0.2-7.5,0.3-12.2,1.7
			c-5.6,1.7-6.2,1.4-9.1-5.3C17.5,91.6,17.2,91.2,17,91.7"/>
		<path class="st3" d="M44.3,116.4c4.7,0.6,8.7,2.8,10.9,6c2.2,3.3,4.4,11.5,3.2,11.8c-2.2,0.7-11,0.4-14.6-0.5
			c-4.5-1.1-9.7-4.4-12.5-7.9c-0.2-0.2-0.7-0.8-1.1-1.4c-2.5-2.9-3.9-5.9-3.1-6.6c0.1-0.1,1.2-0.3,2.4-0.4c2.3-0.2,5.5-0.6,8.5-1
			C40.2,116.2,42.4,116.2,44.3,116.4"/>
		<path class="st3" d="M97.8,126.3c2.3,0.6,3.8,1.1,6.4,2.6c2.3,1.2,4.2,2.3,6.9,3.6c2.2,1.1,2.5,1.3,2.5,1.7c0,2.1-6.8,6.3-13,8
			c-4.6,1.3-11,0.7-16-1.5c-0.3-0.1-0.6-0.2-0.7-0.2c-0.2,0-1.6-0.6-3.9-1.7c-2-0.9-2-0.9-1.1-2.7c1.5-3,4.8-6.8,7.2-8.3
			C89,125.9,93.6,125.3,97.8,126.3"/>
		<line id="axis_3_" class="st1" x1="14.9" y1="115.9" x2="123.1" y2="139.9"/>
	</g>
	<path class="st2" d="M159.8,62.6c-4.2,1.1-5.7,6.9-2.6,9.7c4.7,4.2,11.6-0.4,9.4-6.3C165.7,63.4,162.5,61.8,159.8,62.6"/>
	<path class="st2" d="M45.5,0.1c-4.3,0.9-5.9,6.6-2.8,9.7c2.2,2.2,6,2.3,8.2,0.1C54.9,5.8,51.1-1.1,45.5,0.1"/>
	<path class="st2" d="M3.5,34.1c-3.7,1.5-4.7,6.5-1.8,9.4c2.3,2.3,6.3,2.2,8.4-0.2C14,38.6,9.1,31.8,3.5,34.1"/>
</g>
</svg>
