<?xml version="1.0" encoding="utf-8"?>
<!-- Generator: Adobe Illustrator 22.0.1, SVG Export Plug-In . SVG Version: 6.00 Build 0)  -->
<svg version="1.1" id="Layer_1" xmlns="http://www.w3.org/2000/svg" xmlns:xlink="http://www.w3.org/1999/xlink" x="0px" y="0px"
	 viewBox="0 0 433 433" style="enable-background:new 0 0 433 433;" xml:space="preserve">
<style type="text/css">
	.st0{fill:none;stroke:#000000;stroke-miterlimit:10;}
	.st1{fill:#FFFFFF;stroke:#000000;stroke-miterlimit:10;}
</style>
<circle class="st0" cx="216.5" cy="216.5" r="216"/>
<g>
	<g>
		<g id="flystitch">
			<path id="boundary" class="st1" d="M105.8,194.4c-9.4,16-26.7,21.2-38.4,20.5c-3.2,12.3-5.8,25.4-8.1,39.6l-6-1
				c2.3-14.6,8.4-40.9,8.4-41c0.2-0.7-1.1-1.6-2.2-4.7c-7.5-20.4-2.9-44.2,6.2-63.8c1.7-2.4,30.8-44.9,59.6-65.8
				c0,0,27.6-5.6,41.2,1.9c-4.1,22.8-18.1,46.3-19.6,49.4l0,0C137.1,158.4,110.5,188.9,105.8,194.4z"/>
			<path id="boundary2" class="st1" d="M93,194.4c5.2,1.4,6.4,1.9,12.8,0c-9.4,16-26.7,21.2-38.4,20.5c-3.2,12.3-5.8,25.4-8.1,39.6
				l-6-1c2.3-14.6,8.4-40.9,8.4-41c0.2-0.7-1.1-1.6-2.2-4.7c-7.5-20.4-2.9-44.2,6.2-63.8c1.6,6.1,3.2,12.1,4.8,18.2
				c6.2-39.2,26-63.1,54.8-84l1.8,8c12.8-9,25.8-13.5,39.4-6c-4.1,22.8-14.8,38.9-36,53.5c4.9,1.2,11.2-1.1,16.4-4.2l0,0
				C137.1,158.4,115.6,179.2,93,194.4z"/>
			<path id="axis" class="st0" d="M180.8,74.5c0,0-45.2,7.7-88.7,66.8c-10.8,14.7-30.4,71.2-30.4,71.2"/>
		</g>
	</g>
	<g>
		<g id="flystitch_1_">
			<path id="boundary_1_" class="st1" d="M250.7,110.1c-16.8-8-23.5-24.8-23.8-36.5c-12.5-2.1-25.8-3.6-40.1-4.6l0.4-6.1
				c14.7,1,41.5,4.7,41.6,4.8c0.7,0.1,1.5-1.2,4.5-2.6c19.7-9.3,43.8-6.8,64.1,0.6c2.6,1.4,47.5,26.8,70.8,53.6c0,0,8,27,1.7,41.2
				c-23.1-2-47.7-13.9-50.9-15.2l0,0C289.3,138,256.6,114.3,250.7,110.1z"/>
			<path id="boundary2_1_" class="st1" d="M249.6,97.3c-0.9,5.3-1.3,6.5,1.1,12.7c-16.8-8-23.5-24.8-23.8-36.5
				c-12.5-2.1-25.8-3.6-40.1-4.6l0.4-6.1c14.7,1,41.5,4.7,41.6,4.8c0.7,0.1,1.5-1.2,4.5-2.6c19.7-9.3,43.8-6.8,64.1,0.6
				c-5.9,2.1-11.8,4.2-17.7,6.4c39.6,2.8,65.1,20.4,88.5,47.2l-7.8,2.5c10.1,11.9,15.8,24.5,9.5,38.7c-23.1-2-40-11.3-56.5-31.2
				c-0.8,5,2,11,5.6,16l0,0C289.3,138,266.7,118.4,249.6,97.3z"/>
			<path id="axis_1_" class="st0" d="M376.8,174.2c0,0-11.6-44.4-74.4-82.5c-15.6-9.4-73.6-24-73.6-24"/>
		</g>
	</g>
	<g>
		<g id="flystitch_2_">
			<path id="boundary_2_" class="st1" d="M328.9,241.7c9.5-16,26.8-21.1,38.5-20.3c3.2-12.2,5.9-25.4,8.2-39.6l6,1
				c-2.4,14.6-8.5,40.9-8.6,41c-0.2,0.7,1.1,1.6,2.2,4.7c7.4,20.5,2.7,44.3-6.5,63.7c-1.7,2.4-31,44.8-59.9,65.5
				c0,0-27.6,5.5-41.2-2.1c4.1-22.8,18.3-46.3,19.8-49.3l0,0C297.5,277.5,324.2,247.2,328.9,241.7z"/>
			<path id="boundary2_2_" class="st1" d="M341.7,241.7c-5.2-1.4-6.4-1.9-12.8,0c9.5-16,26.8-21.1,38.5-20.3
				c3.2-12.2,5.9-25.4,8.2-39.6l6,1c-2.4,14.6-8.5,40.9-8.6,41c-0.2,0.7,1.1,1.6,2.2,4.7c7.4,20.5,2.7,44.3-6.5,63.7
				c-1.6-6.1-3.1-12.1-4.7-18.2c-6.4,39.2-26.3,63-55.1,83.7l-1.8-8c-12.8,9-25.8,13.4-39.4,5.9c4.1-22.8,15-38.8,36.2-53.4
				c-4.9-1.3-11.2,1-16.4,4.1l0,0C297.5,277.5,319.1,256.9,341.7,241.7z"/>
			<path id="axis_2_" class="st0" d="M253.5,361.3c0,0,45.3-7.5,88.9-66.4c10.8-14.6,30.6-71.1,30.6-71.1"/>
		</g>
	</g>
	<g>
		<g id="flystitch_3_">
			<path id="boundary_3_" class="st1" d="M186.8,323.2c16.6,8.4,22.9,25.3,23,37c12.4,2.3,25.7,4.1,40,5.4l-0.5,6
				c-14.7-1.3-41.4-5.6-41.5-5.6c-0.7-0.1-1.5,1.2-4.6,2.5c-19.9,8.9-44,5.9-64-1.9c-2.5-1.5-46.9-27.8-69.6-55.1
				c0,0-7.4-27.1-0.8-41.2c23,2.5,47.4,15,50.6,16.3l0,0C148.8,294.4,181,318.9,186.8,323.2z"/>
			<path id="boundary2_3_" class="st1" d="M187.7,335.9c1-5.3,1.4-6.5-0.9-12.8c16.6,8.4,22.9,25.3,23,37c12.4,2.3,25.7,4.1,40,5.4
				l-0.5,6c-14.7-1.3-41.4-5.6-41.5-5.6c-0.7-0.1-1.5,1.2-4.6,2.5c-19.9,8.9-44,5.9-64-1.9c5.9-2,11.9-4,17.8-6
				c-39.6-3.6-64.7-21.8-87.4-49.1l7.8-2.3c-9.8-12.1-15.2-24.8-8.7-38.9c23,2.5,39.8,12.2,55.8,32.4c0.9-4.9-1.8-11.1-5.3-16.1l0,0
				C148.8,294.4,171,314.4,187.7,335.9z"/>
			<path id="axis_3_" class="st0" d="M62.2,256.4c0,0,10.7,44.6,72.6,84c15.4,9.8,73.1,25.5,73.1,25.5"/>
		</g>
	</g>
</g>
</svg>
