<?xml version="1.0" encoding="utf-8"?>
<!-- Generator: Adobe Illustrator 22.0.1, SVG Export Plug-In . SVG Version: 6.00 Build 0)  -->
<svg version="1.1" id="Layer_1" xmlns="http://www.w3.org/2000/svg" xmlns:xlink="http://www.w3.org/1999/xlink" x="0px" y="0px"
	 viewBox="0 0 433 433" style="enable-background:new 0 0 433 433;" xml:space="preserve">
<style type="text/css">
	.st0{fill:none;stroke:#000000;stroke-miterlimit:10;}
	.st1{fill:#FFFFFF;stroke:#000000;stroke-miterlimit:10;}
	.st2{fill:none;stroke:#000000;stroke-linejoin:round;stroke-miterlimit:10;}
</style>
<g>
	<path class="st0" d="M306,220.6c-0.7-0.4-1.5-0.6-2.3-0.9c0-1.1,0.1-2.4,0-3.6c-0.2-2.7-1.1-5.1-2.4-7.5c-1.2-2.1-2.1-4.4-3.3-6.4
		c-1.9-3.1-3.9-6.1-6-9.1c-1.1-1.6-2.3-3.2-3.5-4.7c-2.7-3.5-5.9-6.3-9.5-8.7c-4.6-3-9.2-6.1-14-8.8c-1.7-1-3.6-1.6-5.5-2.2
		c-1.2-0.4-2.3-0.7-3.5-1.2c-0.6-0.2-1.2-0.3-1.8-0.6c-0.2-0.1-0.3-0.4-0.4-0.7c-0.1-0.3-0.1-0.5-0.2-0.8c-0.4-1.7-0.8-3.3-1.3-5
		c-0.4-1.2-1.1-2.2-1.7-3.3c-1.9-3.4-3.8-6.8-5.9-10.1c-1.2-1.9-2.9-3.6-4.5-5.3c-1.3-1.4-2.6-2.9-4.1-4.1c-2.4-1.9-4.8-3.8-7.8-4.8
		c-3.2-1-6.4-1.4-9.6-1.6c-1.7-0.1-3.4-0.3-5.1-0.4c-2.5-0.1-5-0.1-7.5-0.1s-5,0-7.5-0.1c-1.4,0-2.9-0.2-4.3-0.4
		c-0.4,0-0.8-0.4-1.2-0.5c-0.3-0.1-0.7-0.3-1-0.4c-1.3-0.2-2.5-0.4-3.8-0.6c-0.1,0-0.3,0-0.4-0.1c-3.9-1.5-7.5-3.3-11-5.6
		c-2.4-1.6-4.9-2.9-7.4-4.2c-0.1-0.1-0.2-0.1-0.4-0.2c-0.6-0.3-1.3-0.5-2-0.7h1.3l-0.2-0.2h-6.8l-0.8,0.3v0.1
		c-2.4,1.3-2.9,3.6-3,6.2c-0.3,5.5,1.3,10.3,4.2,14.8c0.9,1.4,1.8,2.8,2.6,4.2c1.2,2.1,2.9,3.8,4.4,5.5c2,2.2,3.9,4.5,5.6,6.9
		c2.3,3.4,4.4,6.9,6.6,10.3c1.5,2.4,2.5,5,3,7.8c0.2,1.1,0.4,2.1,0.6,3.2c0,0.2,0.1,0.4,0,0.6c0,0.6-0.4,1.1-0.9,1.5
		c-1.9,1.7-3.9,3.3-5.7,5.1c-1.2,1.2-2,2.7-3,4c-1.2,1.5-2.4,2.9-3.6,4.5c-0.8,1-1.4,2.1-2.2,3.1c-0.4,0.5-0.8,1.1-1.2,1.6
		c-0.7,0.8-1.9,1-3,0.5c-0.4-0.2-0.9-0.4-1.3-0.7c-1-0.7-2-1.6-2.8-2.6c-2.4-2.9-3.9-6.5-5.6-9.8c-0.9-1.7-1.8-3.3-2.8-4.9
		c-1.1-1.7-2.2-3.5-3.3-5.1c-2-2.9-4-5.8-6-8.8c-1.2-1.9-2.3-3.8-3.5-5.7c-1.7-2.6-3.3-5.3-5.3-7.7c-1.6-1.9-3.6-3.4-5.7-4.7
		c-1.5-0.9-3-1.6-4.7-1.9c-1.7-0.3-2.6,0.1-3.5,1.8c-0.8,1.5-1.4,3.2-0.8,4.9c0.7,1.8,1.6,3.6,2.6,5.2c1.6,2.8,3.7,5.3,4.9,8.3
		c1.5,3.9,3.2,7.8,3.9,11.9c0.6,3.9,1,7.8,1.4,11.7c0.3,3.3,0.5,6.6,0.7,9.9c0.2,3.1,0.3,6.2,0.3,9.4c0,2.9-0.3,5.8-0.5,8.6
		c-0.2,2.7-0.3,5.4-0.6,8.1c-0.4,3.8-0.8,7.6-1.4,11.3c-0.6,4-1.8,7.8-3.5,11.5c-1.6,3.6-2.8,7.3-3.9,11.1c-0.8,2.8-2,5.4-2.9,8.2
		c-0.9,2.6-1.7,5.2-1.6,8c0.1,1,0.1,2,0.4,2.9c0.1,0.5,0.6,1.1,1,1.4c1.7,1,3.6,1.3,5.5,0.7c0.2,0,0.3-0.1,0.5-0.2
		c2.7-1.7,5.5-3,7.6-5.7c2.8-3.7,5.7-7.3,8.6-10.9c1.5-1.9,3.2-3.7,4.7-5.7c1.8-2.3,3.5-4.6,5.2-6.9c2.2-2.8,4.4-5.5,6.6-8.2
		c0.5-0.6,0.9-1.1,1.4-1.7c0.7-0.9,1.3-0.9,2.2-0.2c4.2,3.5,8.1,7.6,12.1,11.4c1.6,1.5,3.3,2.8,4.9,4.2c0.4,0.3,0.8,0.7,1.3,1.2
		c-1.7,1.8-3.3,3.4-5.3,4.5c-2,1.2-3.9,2.4-5.9,3.5c-0.5,0.3-1,0.4-1.6,0.6c-2.1,0.8-4.1,1.6-6.2,2.5c-0.5,0.2-1,0.8-1.3,1.4
		c-0.2,0.3,0,1,0.3,1.3c1.7,1.5,3.6,2.6,5.8,2.7c2.4,0.2,4.8,0.1,7.1-0.3c3.5-0.7,7-1.7,10.4-2.8c2.1-0.7,4.2-1.8,6.2-2.8
		c1.5-0.7,2.9-1.6,4.4-2.3c0.4-0.2,0.9-0.2,1.3,0c4.1,1.8,8.4,3.1,12.8,3.5c1.3,0.1,2.7,0.1,4,0c0.7,0,0.8,0.2,0.7,0.9
		c-0.5,2.5-1.5,4.8-3,6.8c-1.1,1.5-1.9,3.1-3.1,4.5c-1.4,1.6-3,3-4.4,4.5c-2.1,2.3-4.5,4.2-7.1,5.9c-1,0.6-1.8,1.6-2.4,2.6
		c-0.4,0.6-0.3,1.6-0.3,2.5c0,0.2,0.5,0.5,0.8,0.5c0.9,0.1,1.9,0.2,2.7,0c3.7-1.1,7.3-2.4,10.8-4c1.9-0.9,3.9-1.4,5.8-2.2
		c3.1-1.2,6.2-2.3,9.3-3.5c1-0.4,2-0.9,3.2-1.5c0,0.5,0,0.7-0.1,0.9c-1.7,4.1-3.8,8-6.2,11.6c-2.2,3.2-4.6,6.3-7.5,8.9
		c-0.9,0.8-2.1,1.3-3,2c-1.1,0.9-2.2,1.8-2.3,3.5c-0.1,0.7,0.1,1.2,0.7,1.5c0.6,0.4,1.2,0.7,1.9,1.1H209l0.2,0.3h10.1l0.6-0.2h-5.5
		c2.6-0.7,5.9-1.4,9.1-2.5c2.3-0.8,4.4-2.1,6.6-3.3c3.7-1.9,6.8-4.6,9.4-8c1.8-2.3,3.8-4.5,5.4-7c2.5-3.9,4.5-8.1,6-12.5
		c0.9-2.4,1.8-4.7,2.6-7.2c0.5-1.6,0.7-3.4,1-5c7.5-2.2,15-4.7,21.6-9.6c6.5-4.8,12.5-10.1,17.2-17.2c2-0.5,3.8-1.7,5-3.9
		c0.8-1.3,0.7-2.6,0.6-4c0-0.2,0.1-0.6,0.3-0.7c0.4-0.3,0.9-0.4,1.3-0.7c0.6-0.4,1.4-0.7,1.8-1.2c1.8-2.3,3.5-4.6,5.1-7
		C308.6,225.3,308.1,221.7,306,220.6z M184.7,170.4c-0.1-0.2-0.1-0.4-0.2-0.6c-0.1-0.2-0.1-0.3-0.2-0.5c-0.1-0.2-0.2-0.5-0.3-0.7
		c-0.5-1.2-1.2-2.4-1.9-3.6c-2.7-4-5.3-8.2-8.1-12.1c-1.4-1.9-3.1-3.6-4.7-5.4c-1.8-1.9-3.3-4-4.6-6.3c-1.4-2.4-2.8-4.8-4-7.3
		c-1.7-3.5-1.9-7.3-1.4-11.1c0.3-2.1,1.5-3.2,3.6-3.4c2.4-0.2,4.8,0.2,6.9,1.5c3.5,2,6.9,4.2,10.5,6.2c2.5,1.4,5.2,2.8,7.9,3.6
		c3,0.9,6.1,1.6,9.2,1.6c4.7-0.1,9.5,0.1,14.2,0c4.2,0,8.4,0.4,12.6,1.1c4,0.6,7.4,2.4,10.6,5.1c3.6,3,6.7,6.4,9.3,10.3
		c2.5,3.9,4.9,7.8,6.7,12.1c0.4,1,0.8,2,1,3c0.1,0.3,0.1,0.6,0.1,0.9c0,0.1,0,0.2,0,0.4c0,0.3,0,0.6,0,0.9c-0.3-0.1-0.5-0.1-0.8-0.2
		c-3.3-1.2-6.7-2.4-10.2-2.9c-6.1-0.8-12.2-1.5-18.4-0.6c-1.9,0.3-3.7,0.9-5.5,1.1c-0.2,0-0.4,0.1-0.6,0.1l0,0
		c-0.3,0-0.5,0.1-0.8,0.1c-0.5,0.1-1,0.2-1.5,0.3c-0.3,0.1-0.6,0.2-0.9,0.2c-0.2,0.1-0.5,0.1-0.8,0.2c-0.5,0.2-1,0.3-1.5,0.5
		c-0.2,0.1-0.5,0.2-0.8,0.3l0,0c-0.5,0.2-1,0.4-1.5,0.6c-3.6,1.5-7.3,2.9-10.9,4.5c-2,0.9-3.9,2.1-5.7,3.3c-1.9,1.3-3.7,2.7-5.7,4.1
		c0-0.3-0.1-0.7-0.2-1C185.9,174.7,185.4,172.5,184.7,170.4z M157.9,236.4c-0.1,0.8,0.2,1.3,0.7,1.8c0.8,0.7,1.5,1.3,2.1,1.8
		c-0.9,1-1.8,2.1-2.8,3.2c-1.4,1.7-2.9,3.4-4.2,5.1c-1.4,1.9-2.7,3.9-4.2,5.8c-2.5,3.2-5,6.3-7.5,9.5c-2.2,2.8-4.4,5.7-6.7,8.5
		c-1.4,1.7-2.8,3.4-4.4,4.9c-0.8,0.8-2,1.3-3,1.9s-2.1,1.3-3.3,1.2c-1.2-0.1-2.3-0.5-3.4-1c-0.4-0.2-0.6-1.1-0.6-1.7
		c-0.2-3.4,0.7-6.5,2-9.6c0.8-2,1.5-4.2,2.2-6.3c0.8-2.4,1.5-4.9,2.4-7.4c1.1-3,2.5-5.9,3.5-8.9c1.4-4.2,2.4-8.6,2.6-13.1
		c0.1-2.4,0.6-4.7,0.8-7.1c0.3-2.7,0.5-5.5,0.6-8.2c0.2-3.9,0.4-7.7,0.3-11.6c-0.1-3.8-0.4-7.6-0.7-11.5c-0.3-3.7-0.7-7.5-1-11.2
		c-0.5-4.7-1.6-9.3-3.5-13.6c-1-2.5-2.1-4.9-3.3-7.3c-0.9-1.8-2.2-3.4-3.3-5.1c-0.6-1.1-1.2-2.2-1.6-3.4c-0.7-1.6-0.3-3.2,0.5-4.6
		c0.6-0.9,1.7-1.1,3.1-0.5s2.7,1.4,4,2.3c2.5,1.7,4.6,3.9,6.3,6.5c2.1,3.3,4.2,6.7,6.3,10c1.9,2.9,3.8,5.9,5.7,8.7
		c2.4,3.5,4.8,7.1,6.9,11c1.4,2.7,2.9,5.5,4.4,8.1c0.6,1,1.4,1.9,2.1,2.8c-0.6,0.2-1.3,0.2-1.9,0.5c-1,0.5-1.5,1.4-1.6,2.6v0.3
		c0,0.3,0,0.5,0,0.8c0,0.2,0,0.5,0.1,0.7c0,0.2,0.1,0.5,0.1,0.7s0.1,0.5,0.2,0.7c0.1,0.2,0.1,0.4,0.2,0.6c0,0.1,0,0.1,0.1,0.2
		c0.1,0.2,0.2,0.4,0.3,0.5c0.1,0.2,0.2,0.3,0.3,0.5c0,0,0.1,0.1,0.1,0.2c0.1,0.2,0.3,0.4,0.4,0.6l0,0c0.3,0.3,0.6,0.7,1,1
		c-0.1,0.1-0.2,0.1-0.3,0.2c-0.1,0.1-0.2,0.2-0.3,0.3s-0.2,0.1-0.2,0.2c-0.1,0.1-0.2,0.2-0.2,0.3c-0.1,0.1-0.1,0.2-0.2,0.3
		c-0.1,0.1-0.1,0.2-0.1,0.2c-0.1,0.1-0.2,0.3-0.2,0.5c0,0,0,0.1-0.1,0.2l0,0c-0.1,0.2-0.1,0.4-0.1,0.6c0,0.1,0,0.2,0,0.3
		s0,0.2,0,0.3s0,0.2,0,0.3c0,0.4,0,0.7,0,1c0.1,2,1.1,3.5,2.7,4.7c-0.8,0.2-1.4,0.4-2,0.7c-0.1,0.1-0.2,0.1-0.4,0.2
		c-0.1,0.1-0.2,0.1-0.3,0.2c-0.1,0.1-0.2,0.1-0.3,0.2c-0.1,0.1-0.2,0.2-0.3,0.2c-0.1,0.1-0.2,0.2-0.2,0.2c-0.1,0.1-0.1,0.2-0.2,0.2
		c-0.2,0.2-0.4,0.5-0.5,0.8c0,0.1-0.1,0.1-0.1,0.2c0,0,0,0,0,0.1c-0.1,0.1-0.1,0.3-0.2,0.5c-0.1,0.2-0.1,0.4-0.2,0.7
		c0,0.2-0.1,0.4-0.1,0.6v0.1c0,0.2-0.1,0.4-0.1,0.7c-0.3,3.3,1.4,5.6,3.7,7.6c0.5,0.4,1,0.8,1.5,1.2
		C159.1,231.9,158.3,234,157.9,236.4z M192.5,266.8c-1.4,0.7-2.9,1.3-4.3,2c-1.2,0.6-2.3,1.2-3.5,1.7c-1.7,0.7-3.4,1.3-5.1,1.8
		c-2.5,0.6-5.1,1.1-7.6,1.5c-2.6,0.4-5.2,0.1-7.6-1c0,0-0.1,0-0.2-0.1c-0.4-0.3-0.8-0.7-1.1-1c0.4-0.4,0.7-1.1,1.2-1.3
		c1.8-0.8,3.7-1.4,5.5-2.2c2-1,4-2.2,6-3.3c2.4-1.3,4.4-3.1,6.4-5.1c0.2-0.2,0.4-0.4,0.4-0.5c3.9,2.1,7.8,4.1,11.8,6.2
		C193.6,266,193.1,266.5,192.5,266.8z M225.8,286.4c-2,0.8-3.9,1.8-5.9,2.6c-3.8,1.4-7.6,2.7-11.4,4.1c-2.7,1-5.4,2.2-8.1,3.3
		c-1.1,0.4-2.3,0.7-3.4,1.1c-0.7,0.3-1-0.2-1.4-0.7c-0.3-0.5-0.2-0.9,0.2-1.2c1-0.9,2-2,3.2-2.7c1.9-1.2,3.5-2.7,5.1-4.3
		c1.2-1.2,2.2-2.6,3.5-3.6c2.2-1.7,3.6-4.2,5.2-6.4c1.2-1.7,2-3.8,2.6-5.9c0.6-2,0.6-2.3,2.9-2.5c1.2-0.1,2.5,0,3.7,0.1
		c2.1,0.2,4.2,0.5,6.2,0.7c0.4,0,0.9,0.2,1.5,0.3c-0.4,3.1-0.7,6.2-1.1,9.3c-0.1,1.1-0.5,2.2-0.7,3.3
		C227.7,285.1,227,285.9,225.8,286.4z M252.3,274.6c-0.7,2.5-1.5,4.9-2.4,7.3c-1.8,5.4-4.2,10.4-7.4,15c-2,3-4.3,5.7-6.9,8.2
		c-3.1,3.1-6.8,5.1-10.6,7c-3.6,1.8-7.4,2.6-11.2,3.3c-1.1,0.2-2.1,0.5-3.2,0.1c-0.1,0-0.3-0.1-0.4-0.1c-1.6-0.8-1.5-1.1-0.7-2.3
		c0.5-0.7,1.2-1.4,2-1.8c2.4-1.3,4.1-3.4,5.9-5.3c1.2-1.3,2.4-2.8,3.4-4.3c1.3-2,2.6-4.1,3.7-6.3c1.4-2.7,2.7-5.4,4.1-8.1
		c0.7-1.3,0.8-2.8,1.1-4.3s0.7-3,0.9-4.5c0.2-1.9,0.3-3.9,0.4-5.8c0-0.5,0.1-0.9,0.2-1.5c1.9,0.4,3.7,0.6,5.5,0.6c0.1,0,0.3,0,0.4,0
		c0.4,0,0.7,0,1.1-0.1c0.2,0,0.4-0.1,0.7-0.1c0.2,0,0.4-0.1,0.6-0.1c0.2,0,0.3-0.1,0.5-0.1c0.1,0,0.2-0.1,0.4-0.1s0.3-0.1,0.5-0.2
		s0.4-0.1,0.6-0.2c0.2-0.1,0.4-0.2,0.6-0.3c0.2-0.1,0.5-0.2,0.7-0.4c0.1-0.1,0.3-0.2,0.4-0.3c0.3-0.2,0.6-0.4,0.9-0.6
		c0.2-0.1,0.3-0.2,0.5-0.4c0.3-0.2,0.5-0.5,0.8-0.7s0.5-0.5,0.8-0.8c0.3,0.4,0.7,0.8,1,1.1l0,0c0.2,0.2,0.4,0.3,0.6,0.5
		c0.2,0.2,0.4,0.3,0.7,0.4c0.2,0.1,0.4,0.2,0.7,0.4c0.4,0.2,0.8,0.4,1.2,0.5c0.2,0.1,0.4,0.1,0.6,0.2c0.7,0.2,1.3,0.4,2,0.6
		C252.8,272.3,252.7,273.5,252.3,274.6z M290.1,247c-2.1,2.4-4.1,5-6.4,7.2s-4.9,4.2-7.5,6.1c-0.5,0.4-1.4,0.2-2.1,0.3
		c-0.5,0-0.9,0.1-1.3,0.1c-0.3,0-0.5,0-0.8,0c-0.2,0-0.3,0-0.5,0c-0.1,0-0.2,0-0.3,0c-0.2,0-0.3,0-0.5-0.1c0,0,0,0-0.1,0
		s-0.2,0-0.3-0.1c0,0,0,0-0.1,0c-0.4-0.1-0.8-0.2-1.2-0.3c-0.2-0.1-0.5-0.2-0.7-0.3c-0.2-0.1-0.4-0.2-0.6-0.3h-0.1
		c-0.2-0.1-0.4-0.2-0.6-0.4c-0.2-0.1-0.3-0.2-0.5-0.3c-0.1-0.1-0.2-0.2-0.3-0.3c-0.7-0.5-1.2-1.1-1.8-1.8c-0.1-0.1-0.2-0.2-0.2-0.3
		c-0.1-0.1-0.2-0.3-0.3-0.4c0-0.1-0.1-0.2-0.2-0.2l0,0c-0.2-0.4-0.4-0.8-0.6-1.2c-1.1-2.3-1-4.7-0.9-7.2c0.1-0.9,0.3-1.8,1.2-2.4
		c-0.5-0.8-1.1-1-1.7-0.6c-1.9,1.1-3.8,0.7-5.7,0.3c-2-0.5-4-1.3-5.5-3c-2.2-2.5-2.9-5.5-2.8-8.8c0-0.4,0.5-0.8,0.6-1.2
		c0.2-0.5,0.3-1,0.5-1.5c-0.6-0.2-1.2-0.5-1.8-0.5c-0.5,0-1.1,0.2-1.6,0.5c-1.1,0.4-2.1,0.4-3.1-0.4c-0.8-0.8-1.8-1.5-2.4-2.5
		c-1.1-1.7-0.7-3.6,0.2-5.3c0.4-0.7,0.8-1.4,1.2-2.2s0.9-1.4,1.8-1.7c0.2-0.1,0.5-0.4,0.5-0.6c0-0.2-0.2-0.5-0.4-0.6
		c-0.9-0.5-1.9-0.9-2.8-1.4c-2-1.2-3.8-2.6-5-4.7c-0.1-0.1-0.2-0.3-0.2-0.5c-0.1-0.1-0.1-0.3-0.2-0.5c-0.1-0.2-0.2-0.4-0.2-0.6
		c-0.1-0.2-0.1-0.4-0.2-0.6c0-0.1,0-0.1,0-0.1c0-0.2-0.1-0.3-0.1-0.5V208c0-0.2,0-0.4,0-0.6c0-0.6,0.1-1.3,0.4-2
		c0.1-0.2,0.2-0.4,0.2-0.6c0.1-0.2,0.1-0.4,0.2-0.6c0.2-0.4,0.3-0.8,0.5-1.2l0,0c0.2-0.4,0.4-0.9,0.7-1.3c0.1-0.2,0.2-0.4,0.3-0.6
		l0,0c0.1-0.2,0.2-0.4,0.4-0.6c0.2-0.4,0.5-0.7,0.8-1.1c0.1-0.1,0.1-0.1,0.2-0.2c0.1-0.1,0.2-0.2,0.4-0.4s0.4-0.4,0.6-0.5
		c1.4-1.1,2.9-1.8,4.7-2.1c0.3,0,0.6-0.3,0.9-0.5c-0.2-0.3-0.4-0.6-0.6-0.8c-0.3-0.4-0.8-0.8-1-1.3c-0.5-1.3-1-2.6-0.7-4.1
		c0-0.1,0-0.2,0.1-0.3c0,0,0,0,0-0.1l0,0c0.1-0.3,0.2-0.5,0.3-0.8s0.2-0.5,0.3-0.7c0,0,0,0,0-0.1c0.1-0.2,0.2-0.4,0.3-0.6
		c0.1-0.1,0.2-0.2,0.2-0.3c0.1-0.1,0.2-0.2,0.3-0.4c0.7-0.8,1.5-1.5,2.5-2.1c0.2-0.1,0.4-0.2,0.6-0.3c0.2-0.1,0.3-0.1,0.5-0.2
		c0.1-0.1,0.3-0.1,0.4-0.1c0.2-0.1,0.5-0.1,0.7-0.2l0,0c0.2,0,0.4-0.1,0.7-0.1c0.1,0,0.2,0,0.2,0c0.2,0,0.3,0,0.5,0
		c0.1,0,0.1,0,0.2,0c0.2,0,0.5,0,0.7,0c1.1,0,2.2,0.1,3.2,0.2c0.2,0,0.5,0.2,0.7,0.4c0.5,0.5,1,0.6,1.6,0.1c0.5-0.5,0.4-1.1,0-1.6
		c-0.8-1.2-0.7-3.2,0.4-4c1.2-1,2.5-2.1,3.9-2.9c2.2-1.4,4.5-1,6.7,0.1c2.5,1.2,5,2.7,7.4,4.2c3.8,2.4,7.3,5.5,10.5,8.7
		c2.7,2.7,4.8,5.9,6.9,9.1c1.8,2.7,3.4,5.5,5.1,8.3c1.1,1.9,2.1,3.9,3.1,5.8c0.3,0.5,0.4,1.2,0.5,1.8c0.3,2,0.5,4.1,0.7,6.1
		c0.1,0.6-0.2,1.1-0.8,1.5c-1.2,0.8-2.4,1.8-3.5,2.9c-2.7,2.6-5.5,4.9-8.7,6.7c-1.2,0.7-2.4,1.5-3.7,2.1c-2.2,1.1-2.1,1-3.7-0.9
		c-0.8-1.1-1.7-1.5-2.8-0.9c-0.6,0.3-1.3,0.6-1.2,1.5c0.1,0,0.2,0.1,0.2,0c2-1,2.5-0.9,3.7,0.9c0.2,0.3,0.3,0.7,0.2,1.1
		c-0.3,1.8,0.8,3,1.6,4.3c1.4,2,3.1,3.5,5,4.9c0.9,0.6,1.9,1,3.1,1.5C291,245.4,290.7,246.3,290.1,247z M291.4,243
		c-2.9-1-5-3.1-7-5.5c-0.3-0.4-0.6-0.9-0.9-1.4c1,0.2,1.8,0.5,2.6,0.5c2,0,4.1-0.2,6.1-0.3c1-0.1,2-0.3,3-0.4
		c0.8-0.1,2.3,1.4,2.3,2.2C297.5,241.3,294.3,244,291.4,243z M305.6,227.5c-1,1.7-2,3.3-3.9,4.1c-1.3,0.6-2.6,1.3-4,1.8
		c-0.9,0.3-1.8,0.5-2.7,0.7c-3,0.6-6.1,1.2-9.2,0.8c-0.3,0-0.6-0.1-0.9-0.1c-0.2-0.1-0.4-0.1-0.6-0.2c2.2-1.3,4.5-2.5,6.6-3.9
		c3.1-2,5.9-4.3,8.5-7c0.7-0.7,1.5-1.3,2.3-1.7c2.3-1.3,4.5,0.5,4.5,3.2C306.3,225.9,306,226.8,305.6,227.5z"/>
	<path class="st1" d="M268.6,201.4c-0.1-1.7-0.8-3-1.9-4.1c-1.9-2-4.3-2.9-7-2.9c-0.7,0.1-1.4,0.1-2.1,0.3c-2.3,0.5-4.2,1.7-5.7,3.6
		c-2.2,2.9-2.9,6-1.6,9.5c0.9,2.3,2.6,3.5,4.6,4.4c1.7,0.7,3.5,0.8,5.2,0.1c1-0.4,1.9-0.8,2.9-1.2c1.4-0.5,2.7-1.3,3.7-2.5
		C268.7,206.6,268.8,204.1,268.6,201.4z M267.3,204.3c0,0.4-0.4,0.8-0.7,1.3c-0.4,0.7-0.8,1.3-1.2,1.9c-1.9,2.4-4.4,3.6-7.3,3.8
		c-3.3,0.2-6.2-2.5-6.6-6c-0.3-2.2,0.4-4.1,1.6-5.9c1.7-2.4,3.8-3.7,6.7-3.5c1.8-0.1,3.5,0.5,5.1,1.6
		C267.1,199.3,267.5,201.7,267.3,204.3z"/>
	<path class="st1" d="M259.6,198.3c1.3,0.4,3.1,0.4,4.1,1.9c0.5,0.7,0.7,1.7,1,2.6c0.3,1,0,1.8-0.6,2.6c-1,1.3-1.9,2.5-3.5,3
		c-1.9,0.5-4.9-1.2-5.2-3.6c-0.1-1.1,0-2.3,0.1-3.4C255.8,199.3,257.8,198.4,259.6,198.3z"/>
</g>
<g id="flystitch">
	<path id="boundary_x5F_curve_5_" class="st2" d="M310.5,124.5c0,0-155,41-151,93.5c2.7,35.4,90,100.5,90,100.5"/>
	<path id="boundary_x5F_curve_3_" class="st2" d="M302.5,128.5c0,0-134,39-130,91.5c2.7,35.4,90,100.5,90,100.5"/>
	<path id="boundary_x5F_curve_4_" class="st2" d="M301.5,134c0,0-121.5,33-117.5,85.5c2.7,35.4,90,100.5,90,100.5"/>
	<path id="boundary_x5F_curve_2_" class="st2" d="M311,135c0,0-116.5,31.5-112.5,84c2.7,35.4,90,100.5,90,100.5"/>
	<path id="boundary_x5F_curve_1_" class="st2" d="M318,129c0,0-110,36.5-106,89c2.7,35.4,90,100.5,90,100.5"/>
	<path id="boundary_x5F_curve" class="st2" d="M324.5,137c0,0-103.5,29-99.5,81.5c2.7,35.4,90,100.5,90,100.5"/>
	<path id="boundary_x5F_curve_6_" class="st2" d="M323,151c0,0-88.8,12.4-87.5,65c1,40.5,102,82.5,102,82.5"/>
	<path id="axis_6_" class="st2" d="M169,183c0,0,40.2-22.4,53.6-22c16.8,0.5,66.4,19,66.4,19"/>
	<line id="axis_3_" class="st2" x1="167" y1="176.5" x2="266" y2="182.5"/>
	<line id="axis_4_" class="st2" x1="162" y1="192" x2="261" y2="198"/>
	<line id="axis" class="st2" x1="250.7" y1="216.7" x2="149.2" y2="220.7"/>
	<line id="axis_2_" class="st2" x1="160" y1="242.7" x2="259" y2="236.7"/>
	<line id="axis_1_" class="st2" x1="165" y1="258.2" x2="264" y2="252.2"/>
	<path id="axis_5_" class="st2" d="M165,258.2c0,0,40.5,9.2,53.3,12c30.4,6.8,66.7-9.5,63.2-11.2"/>
</g>
<line class="st0" x1="170.3" y1="120.4" x2="169" y2="118.9"/>
<line class="st2" x1="351.7" y1="357.2" x2="351.7" y2="356.7"/>
</svg>
