<svg width="89" height="89" viewBox="0 0 89 89" fill="none" xmlns="http://www.w3.org/2000/svg">
<path d="M5.46952 44.1508C5.47342 42.2914 5.59452 40.432 5.84061 38.5883C5.80936 38.8305 5.7742 39.0727 5.74295 39.3149C6.03983 37.1235 6.51248 34.9594 7.14915 32.8383C7.46556 31.7953 7.82493 30.768 8.21945 29.7524C8.3132 29.5102 8.41087 29.268 8.51243 29.0297C8.70774 28.5531 8.23509 29.6781 8.43821 29.2055C8.48899 29.0844 8.53977 28.9672 8.59446 28.85C8.82102 28.3344 9.05929 27.8266 9.30539 27.3227C10.2468 25.393 11.3484 23.5454 12.5788 21.7875C12.8718 21.3656 13.1765 20.9555 13.485 20.5453C13.6022 20.3891 13.9147 19.9906 13.3679 20.6937C13.446 20.5922 13.5241 20.4906 13.6061 20.393C13.7897 20.1586 13.9811 19.9281 14.1686 19.6977C14.8483 18.8734 15.5631 18.0805 16.3014 17.3149C17.0397 16.5453 17.8131 15.811 18.61 15.104C18.9928 14.7641 19.3835 14.4321 19.778 14.1079C19.9773 13.9438 20.1765 13.7837 20.3757 13.6235C20.4773 13.5454 20.5788 13.4633 20.6765 13.3852C19.9382 13.9594 20.4655 13.5493 20.6335 13.4243C22.3444 12.1313 24.1569 10.9829 26.0476 9.97118C26.9968 9.46337 27.9695 8.99462 28.9578 8.56098C29.075 8.5102 29.1961 8.45941 29.3172 8.40863C28.4891 8.7641 28.9617 8.56097 29.1453 8.48285C29.3875 8.3852 29.6258 8.28755 29.8719 8.1938C30.3992 7.98677 30.9305 7.79536 31.4657 7.61177C33.5477 6.89693 35.6884 6.35787 37.8563 5.98287C38.3407 5.90084 38.825 5.82661 39.3133 5.7602C39.0711 5.79145 38.8289 5.82661 38.5867 5.85786C42.2781 5.36958 46.0203 5.36958 49.7117 5.85786C49.4695 5.82661 49.2273 5.79145 48.9852 5.7602C51.1766 6.05708 53.3407 6.52974 55.4618 7.16641C56.5048 7.48282 57.5321 7.84219 58.5477 8.23671C58.7898 8.33046 59.032 8.42812 59.2703 8.52968C59.7469 8.72499 58.6219 8.25234 59.0945 8.45546C59.2156 8.50624 59.3328 8.55702 59.45 8.61171C59.9656 8.83827 60.4734 9.07654 60.9773 9.32264C62.907 10.2641 64.7546 11.3656 66.5125 12.596C66.9344 12.889 67.3445 13.1937 67.7547 13.5023C67.911 13.6195 68.3094 13.932 67.6063 13.3851C67.7078 13.4632 67.8094 13.5414 67.907 13.6234C68.1414 13.807 68.3719 13.9984 68.6024 14.1859C69.4266 14.8656 70.2196 15.5804 70.9852 16.3187C71.7547 17.057 72.4891 17.8304 73.1961 18.6273C73.5359 19.0101 73.8679 19.4007 74.1921 19.7953C74.3562 19.9945 74.5164 20.1937 74.6765 20.393C74.7546 20.4945 74.8367 20.5961 74.9148 20.6937C74.3406 19.9555 74.7507 20.4828 74.8757 20.6508C76.1687 22.3617 77.3171 24.1742 78.3288 26.0649C78.8366 27.0141 79.3054 27.9868 79.739 28.9751C79.7898 29.0922 79.8406 29.2133 79.8953 29.3344C79.5398 28.5063 79.7429 28.979 79.8211 29.1626C79.9187 29.4047 80.0164 29.6469 80.1101 29.8891C80.3172 30.4165 80.5086 30.9477 80.6922 31.4829C81.407 33.5649 81.9461 35.7056 82.3211 37.8735C82.4031 38.3579 82.4773 38.8423 82.5437 39.3305C82.5125 39.0883 82.4773 38.8462 82.4461 38.604C82.9343 42.2954 82.9343 46.0376 82.4461 49.729C82.4773 49.4868 82.5125 49.2446 82.5437 49.0024C82.2468 51.1938 81.7742 53.3579 81.1375 55.479C80.8211 56.522 80.4617 57.5493 80.0672 58.5649C79.9735 58.8071 79.8758 59.0493 79.7742 59.2876C79.5789 59.7641 80.0516 58.6391 79.8485 59.1118C79.7977 59.2329 79.7469 59.3501 79.6922 59.4673C79.4657 59.9829 79.2274 60.4907 78.9813 60.9946C78.0399 62.9243 76.9383 64.7719 75.7079 66.5298C75.4149 66.9516 75.1102 67.3618 74.8016 67.772C74.6844 67.9282 74.3719 68.3266 74.9188 67.6235C74.8407 67.7251 74.7626 67.8266 74.6805 67.9243C74.4969 68.1587 74.3055 68.3891 74.118 68.6196C73.4383 69.4438 72.7235 70.2368 71.9852 71.0024C71.247 71.7719 70.4735 72.5063 69.6766 73.2133C69.2938 73.5531 68.9032 73.8852 68.5086 74.2094C68.3094 74.3734 68.1102 74.5336 67.911 74.6938C67.8094 74.7719 67.7079 74.8539 67.6102 74.932C68.3485 74.3578 67.8211 74.768 67.6532 74.893C65.9423 76.186 64.1298 77.3344 62.2391 78.3461C61.2898 78.8539 60.3172 79.3226 59.3289 79.7563C59.2117 79.8071 59.0906 79.8578 58.9695 79.9125C59.7976 79.5571 59.325 79.7602 59.1414 79.8383C58.8992 79.936 58.6609 80.0336 58.4148 80.1274C57.8875 80.3344 57.3562 80.5258 56.821 80.7094C54.739 81.4242 52.5983 81.9633 50.4304 82.3383C49.946 82.4203 49.4617 82.4946 48.9734 82.561C49.2156 82.5297 49.4578 82.4946 49.7 82.4633C46.0086 82.9516 42.2664 82.9516 38.575 82.4633C38.8172 82.4946 39.0593 82.5297 39.3015 82.561C37.1101 82.2641 34.946 81.7914 32.8249 81.1548C31.7819 80.8384 30.7546 80.479 29.739 80.0845C29.4968 79.9907 29.2546 79.8931 29.0164 79.7915C28.5398 79.5962 29.6648 80.0688 29.1921 79.8657C29.0711 79.8149 28.9539 79.7642 28.8367 79.7095C28.3211 79.4829 27.8133 79.2446 27.3094 78.9985C25.3797 78.0571 23.5321 76.9555 21.7742 75.7251C21.3523 75.4322 20.9421 75.1275 20.532 74.8189C20.3757 74.7017 19.9773 74.3892 20.6804 74.9361C20.5788 74.8579 20.4773 74.7798 20.3796 74.6978C20.1453 74.5142 19.9148 74.3228 19.6843 74.1353C18.8601 73.4556 18.0671 72.7408 17.3015 72.0025C16.532 71.2642 15.7976 70.4908 15.0906 69.6939C14.7508 69.3111 14.4187 68.9204 14.0945 68.5259C13.9305 68.3267 13.7703 68.1274 13.6101 67.9282C13.532 67.8267 13.45 67.7251 13.3719 67.6274C13.9461 68.3657 13.5359 67.8384 13.4109 67.6704C12.1179 65.9595 10.9695 64.147 9.95783 62.2563C9.45002 61.3071 8.98127 60.3344 8.54763 59.3461C8.49685 59.2289 8.44607 59.1078 8.39529 58.9867C8.75076 59.8149 8.54763 59.3422 8.46951 59.1586C8.37185 58.9164 8.2742 58.6742 8.18045 58.4321C7.97342 57.9047 7.78201 57.3735 7.59842 56.8383C6.88358 54.7563 6.34452 52.6155 5.96952 50.4476C5.88749 49.9633 5.81327 49.4789 5.74686 48.9907C5.77811 49.2328 5.81327 49.475 5.84452 49.7172C5.59843 47.8695 5.47343 46.0102 5.46952 44.1508C5.46561 42.6586 4.22732 41.4164 2.73512 41.4164C1.24682 41.4164 -0.00317885 42.6586 0.000721022 44.1508C0.0163452 53.3305 2.89912 62.4668 8.30152 69.9008C13.7234 77.3617 21.2785 82.9708 30.0045 85.9708C38.8053 88.9981 48.6765 89.045 57.5315 86.2169C61.8167 84.8497 65.9143 82.8224 69.5785 80.2091C73.3988 77.4864 76.684 74.2443 79.5199 70.5138C85.0668 63.2169 88.0785 54.1158 88.2738 44.9708C88.4691 35.7872 85.6879 26.5488 80.4261 19.0178C75.1449 11.4592 67.6721 5.7448 59.0161 2.5798C50.27 -0.6155 40.4111 -0.818598 31.5001 1.83761C22.9103 4.40011 15.1131 9.65791 9.57812 16.7126C6.66402 20.4274 4.37502 24.4782 2.71092 28.9006C1.07812 33.2365 0.218716 37.8694 0.0312159 42.4946C0.00777781 43.0454 -3.42393e-05 43.5923 -3.42874e-05 44.143C-0.00394042 45.6352 1.24607 46.8774 2.73437 46.8774C4.22657 46.8852 5.46877 45.643 5.46877 44.1508L5.46952 44.1508Z" fill="white"/>
<path d="M60.4145 41.4168L48.9575 41.4168L31.2545 41.4168L27.8717 41.4168C26.3795 41.4168 25.1373 42.659 25.1373 44.1512C25.1373 45.6434 26.3795 46.8856 27.8717 46.8856L39.3287 46.8856L57.0317 46.8856L60.4145 46.8856C61.9067 46.8856 63.1489 45.6434 63.1489 44.1512C63.1489 42.659 61.9067 41.4168 60.4145 41.4168V41.4168Z" fill="white"/>
<path d="M42.9885 55.2758C39.5471 51.8656 36.1057 48.4594 32.6605 45.0488C31.7074 44.1035 30.7543 43.1621 29.8011 42.2168C28.7425 41.1699 26.9925 41.1582 25.9339 42.2168C24.8831 43.2676 24.8753 45.0371 25.9339 46.084C29.3753 49.4942 32.8167 52.9004 36.2619 56.311C37.215 57.2564 38.1681 58.1977 39.1213 59.143C40.1799 60.1899 41.9299 60.2016 42.9885 59.143C44.0393 58.0922 44.0471 56.3227 42.9885 55.2758V55.2758Z" fill="white"/>
<path d="M39.1216 29.1589C35.6802 32.5691 32.2388 35.9753 28.7936 39.3859C27.8404 40.3312 26.8874 41.2726 25.9342 42.2179C24.8756 43.2648 24.8834 45.0343 25.9342 46.0851C26.9928 47.1437 28.7428 47.132 29.8014 46.0851C33.2428 42.6749 36.6842 39.2687 40.1294 35.8581C41.0825 34.9128 42.0356 33.9714 42.9888 33.0261C44.0474 31.9792 44.0396 30.2097 42.9888 29.1589C41.9341 28.1042 40.1802 28.112 39.1216 29.1589V29.1589Z" fill="white"/>
</svg>
