<svg width="89" height="89" viewBox="0 0 89 89" fill="none" xmlns="http://www.w3.org/2000/svg">
<path d="M82.8139 44.1402C82.81 45.9996 82.6889 47.859 82.4428 49.7027C82.4741 49.4605 82.5092 49.2183 82.5405 48.9761C82.2436 51.1675 81.771 53.3316 81.1343 55.4527C80.8179 56.4957 80.4585 57.523 80.064 58.5386C79.9703 58.7808 79.8726 59.023 79.771 59.2613C79.5757 59.7379 80.0484 58.6129 79.8452 59.0855C79.7945 59.2066 79.7437 59.3238 79.689 59.441C79.4624 59.9566 79.2242 60.4644 78.9781 60.9683C78.0366 62.898 76.9351 64.7456 75.7047 66.5035C75.4117 66.9254 75.107 67.3355 74.7984 67.7457C74.6812 67.9019 74.3687 68.3004 74.9156 67.5973C74.8375 67.6988 74.7593 67.8004 74.6773 67.898C74.4937 68.1324 74.3023 68.3629 74.1148 68.5933C73.4351 69.4176 72.7203 70.2105 71.982 70.9761C71.2437 71.7457 70.4703 72.48 69.6734 73.187C69.2906 73.5269 68.9 73.8589 68.5054 74.1831C68.3062 74.3472 68.107 74.5074 67.9078 74.6675C67.8062 74.7456 67.7046 74.8277 67.607 74.9058C68.3453 74.3316 67.8179 74.7417 67.6499 74.8667C65.939 76.1597 64.1265 77.3081 62.2358 78.3198C61.2866 78.8276 60.3139 79.2964 59.3256 79.73C59.2085 79.7808 59.0874 79.8316 58.9663 79.8824C59.7944 79.5269 59.3217 79.73 59.1381 79.8082C58.896 79.9058 58.6577 80.0035 58.4116 80.0972C57.8842 80.3042 57.353 80.4957 56.8178 80.6792C54.7358 81.3941 52.5951 81.9331 50.4272 82.3081C49.9428 82.3902 49.4584 82.4644 48.9702 82.5308C49.2124 82.4996 49.4546 82.4644 49.6967 82.4332C46.0053 82.9214 42.2631 82.9214 38.5717 82.4332C38.8139 82.4644 39.0561 82.4996 39.2983 82.5308C37.1069 82.2339 34.9428 81.7613 32.8217 81.1246C31.7787 80.8082 30.7514 80.4488 29.7358 80.0543C29.4936 79.9606 29.2514 79.8629 29.0131 79.7613C28.5366 79.566 29.6616 80.0387 29.1889 79.8356C29.0678 79.7848 28.9506 79.734 28.8335 79.6793C28.3178 79.4527 27.8101 79.2145 27.3062 78.9684C25.3765 78.027 23.5289 76.9254 21.771 75.695C21.3491 75.402 20.9389 75.0973 20.5288 74.7887C20.3725 74.6715 19.9741 74.359 20.6772 74.9059C20.5756 74.8278 20.4741 74.7497 20.3764 74.6676C20.142 74.484 19.9116 74.2926 19.6811 74.1051C18.8569 73.4254 18.0639 72.7106 17.2983 71.9723C16.5288 71.234 15.7944 70.4606 15.0874 69.6637C14.7476 69.2809 14.4155 68.8903 14.0913 68.4957C13.9273 68.2965 13.7671 68.0973 13.6069 67.8981C13.5288 67.7965 13.4468 67.6949 13.3687 67.5973C13.9429 68.3356 13.5327 67.8082 13.4077 67.6403C12.1147 65.9294 10.9663 64.1169 9.95462 62.2262C9.44681 61.2769 8.97806 60.3043 8.54442 59.316C8.49363 59.1988 8.44286 59.0777 8.38817 58.9566C8.74364 59.7847 8.54051 59.312 8.46238 59.1285C8.36473 58.8863 8.26707 58.6441 8.17332 58.4019C7.96629 57.8746 7.77488 57.3433 7.59129 56.8081C6.87645 54.7261 6.33739 52.5854 5.96239 50.4175C5.88036 49.9331 5.80614 49.4487 5.73973 48.9605C5.77098 49.2027 5.80614 49.4449 5.83739 49.6871C5.34911 45.9957 5.34911 42.2535 5.83739 38.5621C5.80614 38.8042 5.77098 39.0464 5.73973 39.2886C6.0366 37.0972 6.50926 34.9331 7.14593 32.812C7.46234 31.769 7.82171 30.7417 8.21623 29.7261C8.30998 29.4839 8.40764 29.2417 8.5092 29.0035C8.70451 28.5269 8.23186 29.6519 8.43499 29.1792C8.48577 29.0581 8.53655 28.941 8.59124 28.8238C8.8178 28.3081 9.05608 27.8004 9.30218 27.2965C10.2436 25.3668 11.3452 23.5192 12.5756 21.7613C12.8685 21.3394 13.1732 20.9292 13.4818 20.5191C13.599 20.3628 13.9115 19.9644 13.3646 20.6675C13.4428 20.5659 13.5209 20.4644 13.6029 20.3667C13.7865 20.1323 13.9779 19.9019 14.1654 19.6714C14.8451 18.8472 15.5599 18.0542 16.2982 17.2886C17.0365 16.5191 17.8099 15.7847 18.6068 15.0777C18.9896 14.7379 19.3803 14.4058 19.7748 14.0816C19.974 13.9176 20.1733 13.7574 20.3725 13.5972C20.474 13.5191 20.5756 13.4371 20.6733 13.359C19.935 13.9332 20.4623 13.523 20.6303 13.398C22.3412 12.105 24.1537 10.9566 26.0444 9.94493C26.9936 9.43712 27.9663 8.96837 28.9546 8.53473C29.0718 8.48395 29.1929 8.43317 29.314 8.37848C28.4858 8.73395 28.9585 8.53082 29.1421 8.4527C29.3843 8.35504 29.6226 8.25739 29.8686 8.16364C30.396 7.95661 30.9272 7.7652 31.4624 7.58161C33.5444 6.86677 35.6851 6.32771 37.853 5.95271C38.3374 5.87067 38.8218 5.79646 39.31 5.73005C39.0679 5.7613 38.8257 5.79645 38.5835 5.8277C42.2749 5.33942 46.0171 5.33942 49.7085 5.8277C49.4663 5.79645 49.2241 5.7613 48.9819 5.73005C51.1733 6.02693 53.3374 6.49958 55.4585 7.13625C56.5015 7.45266 57.5288 7.81203 58.5444 8.20655C58.7866 8.3003 59.0288 8.39796 59.2671 8.49952C59.7436 8.69483 58.6186 8.22218 59.0913 8.4253C59.2124 8.47608 59.3296 8.52686 59.4468 8.58155C59.9624 8.80811 60.4702 9.04639 60.9741 9.29249C62.9038 10.2339 64.7514 11.3355 66.5093 12.5659C66.9312 12.8589 67.3413 13.1635 67.7515 13.4721C67.9077 13.5893 68.3062 13.9018 67.603 13.3549C67.7046 13.4331 67.8062 13.5112 67.9038 13.5932C68.1382 13.7768 68.3687 13.9682 68.5991 14.1557C69.4233 14.8354 70.2163 15.5502 70.9819 16.2885C71.7515 17.0268 72.4858 17.8002 73.1928 18.5971C73.5327 18.9799 73.8647 19.3706 74.1889 19.7651C74.353 19.9643 74.5131 20.1636 74.6733 20.3628C74.7514 20.4643 74.8335 20.5659 74.9116 20.6636C74.3374 19.9253 74.7475 20.4526 74.8725 20.6206C76.1655 22.3315 77.3139 24.144 78.3256 26.0347C78.8334 26.9839 79.3022 27.9566 79.7358 28.9449C79.7866 29.0621 79.8374 29.1832 79.8882 29.3043C79.5327 28.4761 79.7358 28.9488 79.8139 29.1324C79.9116 29.3746 80.0092 29.6168 80.103 29.859C80.31 30.3863 80.5014 30.9176 80.685 31.4528C81.3999 33.5348 81.9389 35.6755 82.3139 37.8434C82.396 38.3277 82.4702 38.8121 82.5366 39.3004C82.5053 39.0582 82.4702 38.816 82.4389 38.5738C82.685 40.4215 82.81 42.2808 82.8139 44.1402C82.8178 45.6324 84.0561 46.8746 85.5483 46.8746C87.0366 46.8746 88.2866 45.6324 88.2827 44.1402C88.2671 34.9605 85.3843 25.8242 79.9819 18.3902C74.56 10.9293 67.0049 5.3202 58.2789 2.3202C49.4781 -0.707101 39.6069 -0.754002 30.7519 2.07411C26.4667 3.44131 22.3691 5.46861 18.7049 8.08191C14.8846 10.8046 11.5994 14.0467 8.76353 17.7772C3.21663 25.0741 0.204929 34.1752 0.00962931 43.3202C-0.185681 52.5038 2.59553 61.7422 7.85733 69.2732C13.1385 76.8318 20.6113 82.5462 29.2673 85.7112C38.0134 88.9065 47.8723 89.1096 56.7833 86.4534C65.3731 83.8909 73.1703 78.6331 78.7053 71.5784C81.6194 67.8636 83.9084 63.8128 85.5725 59.3904C87.2053 55.0545 88.0647 50.4216 88.2522 45.7964C88.2757 45.2456 88.2835 44.6987 88.2835 44.148C88.2874 42.6558 87.0374 41.4136 85.5491 41.4136C84.0569 41.4058 82.8147 42.648 82.8147 44.1402L82.8139 44.1402Z" fill="white"/>
<path d="M27.8689 46.8742H39.3259H57.0289H60.4117C61.9039 46.8742 63.1461 45.632 63.1461 44.1398C63.1461 42.6476 61.9039 41.4054 60.4117 41.4054H48.9547H31.2517H27.8689C26.3767 41.4054 25.1345 42.6476 25.1345 44.1398C25.1345 45.632 26.3767 46.8742 27.8689 46.8742V46.8742Z" fill="white"/>
<path d="M45.2949 33.0152C48.7363 36.4254 52.1777 39.8316 55.6229 43.2422C56.5761 44.1875 57.5291 45.1289 58.4823 46.0742C59.5409 47.1211 61.2909 47.1328 62.3495 46.0742C63.4003 45.0234 63.4081 43.2539 62.3495 42.207C58.9081 38.7968 55.4667 35.3906 52.0215 31.98C51.0684 31.0347 50.1153 30.0933 49.1621 29.148C48.1035 28.1011 46.3535 28.0894 45.2949 29.148C44.2441 30.1988 44.2363 31.9683 45.2949 33.0152V33.0152Z" fill="white"/>
<path d="M49.1619 59.1322C52.6033 55.722 56.0447 52.3157 59.4899 48.9051C60.443 47.9598 61.3961 47.0185 62.3493 46.0732C63.4079 45.0263 63.4001 43.2568 62.3493 42.206C61.2907 41.1474 59.5407 41.1591 58.4821 42.206C55.0407 45.6162 51.5993 49.0224 48.1541 52.433C47.201 53.3783 46.2479 54.3197 45.2947 55.265C44.2361 56.3119 44.2439 58.0814 45.2947 59.1322C46.3494 60.1869 48.1033 60.1791 49.1619 59.1322V59.1322Z" fill="white"/>
</svg>
